<svg width="36" height="36" viewBox="0 0 36 36" fill="none" xmlns="http://www.w3.org/2000/svg">
<g clip-path="url(#clip0_173_189)">
<path d="M18 0C8.05887 0 0 8.05887 0 18C0 27.9411 8.05887 36 18 36C27.9411 36 36 27.9411 36 18C36 8.05887 27.9411 0 18 0ZM16.6223 8.47266L17.3957 12.0345C15.1295 12.5361 13.0456 13.1885 13.2143 15.7192H15.8774V25.1983H7.85523V16.3389C7.85808 9.29814 13.0273 8.72529 16.6223 8.47266ZM27.3691 8.47266L28.1448 12.0345C25.8785 12.5361 23.7946 13.1885 23.9634 15.7192H26.6265V25.1983H18.6043V16.3389C18.6071 9.29814 23.7741 8.72529 27.3691 8.47266Z" fill="white"/>
</g>
<defs>
<clipPath id="clip0_173_189">
<rect width="36" height="36" fill="white"/>
</clipPath>
</defs>
</svg>
