<?xml version="1.0" encoding="utf-8"?>
<!-- Generator: Adobe Illustrator 27.1.1, SVG Export Plug-In . SVG Version: 6.00 Build 0)  -->
<svg version="1.1" id="Layer_1" xmlns="http://www.w3.org/2000/svg" xmlns:xlink="http://www.w3.org/1999/xlink" x="0px" y="0px"
	 viewBox="0 0 50 53" style="enable-background:new 0 0 50 53;" xml:space="preserve">
<style type="text/css">
	.st0{fill:#00C925;}
	.st1{fill:#303030;}
</style>
<path class="st0" d="M30.2,23.7c0.7-0.1,1.2-0.4,1.5-1c0.4-0.5,0.5-1.1,0.4-1.8L32,20.4l0.6,0.1c0.6,0.1,1.2,0.1,1.8-0.1
	c0.6-0.2,1-0.6,1.2-1.2c0.2-0.6,0.2-1.3,0-1.9c-0.2-0.6-0.7-1-1.4-1.2L33.6,16l0.5-0.3c0.6-0.4,0.9-0.9,0.9-1.6
	c0-0.7-0.2-1.3-0.6-1.8c-0.4-0.5-1-0.8-1.6-0.8c-0.6,0-1.2,0.2-1.7,0.5l-0.5,0.3l-0.1-0.6c-0.1-0.7-0.4-1.2-1-1.5
	c-0.5-0.4-1.1-0.5-1.8-0.4c-0.6,0.1-1.2,0.4-1.5,1c-0.4,0.5-0.5,1.1-0.4,1.8l0.1,0.6l-0.6-0.1c-0.6-0.1-1.2-0.1-1.8,0.1
	c-0.6,0.2-1,0.6-1.2,1.3c-0.2,0.6-0.2,1.2,0,1.9c0.2,0.7,0.7,1.1,1.4,1.2l0.6,0.1L23.8,18c-0.6,0.4-0.9,0.9-0.9,1.6s0.2,1.3,0.7,1.8
	c0.4,0.5,0.9,0.7,1.5,0.7c0.6,0,1.2-0.2,1.7-0.5l0.5-0.3l0.1,0.6c0.1,0.7,0.4,1.2,1,1.5C29,23.7,29.5,23.8,30.2,23.7 M29.4,19.1
	c-0.7,0.1-1.2,0-1.8-0.4c-0.5-0.4-0.8-0.9-1-1.5c-0.1-0.6,0-1.2,0.4-1.8c0.4-0.5,0.9-0.8,1.5-1c0.6-0.1,1.2,0,1.8,0.4
	s0.8,0.9,0.9,1.5c0.1,0.7,0,1.2-0.4,1.8C30.5,18.7,30,19,29.4,19.1 M31.4,30.6c1.3-0.2,2.5-0.7,3.5-1.4c1-0.7,1.9-1.5,2.6-2.5
	c0.6-0.8,1-1.6,1.4-2.6c0.3-0.9,0.5-1.9,0.5-3c0-0.4-0.1-0.7-0.4-1c-0.3-0.2-0.6-0.3-1-0.1c-1,0.3-1.9,0.8-2.7,1.4
	c-0.8,0.6-1.5,1.3-2.1,2.1c-0.7,1-1.3,2.1-1.6,3.3C31.3,28.1,31.3,29.3,31.4,30.6z M31.4,30.6c-0.3-1.3-0.8-2.4-1.5-3.4
	s-1.6-1.9-2.6-2.6c-0.8-0.5-1.7-0.9-2.7-1.2s-2-0.4-3-0.4c-0.4,0-0.7,0.2-0.9,0.5c-0.2,0.3-0.2,0.7-0.1,1.1c0.4,1,0.9,1.8,1.5,2.6
	s1.4,1.4,2.2,2c1,0.7,2.1,1.2,3.3,1.5C28.9,30.8,30.1,30.8,31.4,30.6z M19.9,39.7c-1.3,0.2-2.4,0-3.5-0.8c-1.1-0.7-1.7-1.7-1.9-3
	l-4.5-25.3c-0.2-1.3,0-2.4,0.8-3.5c0.7-1.1,1.7-1.7,3-1.9l25.3-4.5c1.3-0.2,2.4,0,3.5,0.8c1.1,0.7,1.7,1.7,1.9,3L49,29.9
	c0.2,1.3,0,2.4-0.8,3.5s-1.7,1.7-3,1.9L19.9,39.7z"/>
<path class="st1" d="M14.5,52.1c-1.2,0.4-2.4,0.3-3.6-0.3C9.8,51.2,9,50.3,8.7,49L1.2,24.5c-0.4-1.2-0.3-2.4,0.3-3.6
	C2.1,19.8,3,19,4.2,18.7l2.6-0.8l3.3,18.7c0.4,2.5,1.7,4.5,3.8,6c2.1,1.5,4.4,2,7,1.6l21.4-3.8c-0.1,1-0.4,1.8-1,2.6
	c-0.6,0.8-1.3,1.3-2.3,1.6L14.5,52.1z"/>
</svg>
