<svg width="59" height="59" viewBox="0 0 59 59" fill="none" xmlns="http://www.w3.org/2000/svg">
<g clip-path="url(#clip0_198_209)">
<path d="M34.4186 48.6628C23.7371 51.4772 12.7973 45.1001 9.98286 34.4186C7.16846 23.7372 13.5456 12.7973 24.227 9.9829C34.9085 7.16851 45.8483 13.5456 48.6627 24.2271C51.4771 34.9085 45.1 45.8484 34.4186 48.6628ZM28.9175 35.6344L29.9367 39.5024L33.8047 38.4832L32.7855 34.6152L28.9175 35.6344ZM31.9473 31.4338C33.3781 30.5558 34.446 29.1931 34.9565 27.5939C35.467 25.9946 35.3861 24.2652 34.7285 22.7206C34.0709 21.176 32.8804 19.9189 31.3738 19.1784C29.8672 18.4378 28.1448 18.2631 26.5201 18.6859C24.955 19.0977 23.581 20.0392 22.6318 21.35C21.6826 22.6609 21.217 24.2601 21.3142 25.8756L25.3089 25.6358C25.2747 25.0687 25.4021 24.5035 25.6765 24.006C25.9509 23.5085 26.3609 23.0992 26.8589 22.8256C27.3569 22.552 27.9223 22.4255 28.4893 22.4607C29.0564 22.4959 29.6018 22.6914 30.0621 23.0244C30.5224 23.3575 30.8786 23.8144 31.0894 24.342C31.3002 24.8696 31.3568 25.4463 31.2526 26.0048C31.1485 26.5633 30.8879 27.0808 30.5011 27.497C30.1144 27.9132 29.6174 28.211 29.068 28.3558C28.5551 28.491 28.1168 28.8244 27.8497 29.2826C27.5826 29.7409 27.5084 30.2865 27.6436 30.7994L28.408 33.7004L32.2759 32.6812L31.9473 31.4338Z" fill="#00C925"/>
</g>
<defs>
<clipPath id="clip0_198_209">
<rect width="48" height="48" fill="white" transform="translate(0 12.2299) rotate(-14.7611)"/>
</clipPath>
</defs>
</svg>
