<svg width="44" height="44" viewBox="0 0 44 44" fill="none" xmlns="http://www.w3.org/2000/svg">
<path d="M17.8269 1.21924C6.34296 3.54573 -1.10725 14.7814 1.21924 26.2654C3.54572 37.7494 14.7814 45.1996 26.2654 42.8731C37.7494 40.5466 45.1996 29.3109 42.8731 17.8269C40.5466 6.34296 29.3109 -1.10725 17.8269 1.21924ZM5.38462 25.4215C5.00531 23.5492 4.96609 21.686 5.19834 19.8893L9.12808 22.495L14.1373 25.8165L14.9812 29.9819L19.9904 33.3035L22.495 34.9642L23.3097 38.9859C14.8972 39.6169 7.10269 33.9023 5.38462 25.4215ZM37.2856 29.5243C35.7037 28.7044 33.4954 28.3994 32.0646 28.6892L31.6427 26.6065C31.4189 25.5018 30.7654 24.5312 29.826 23.9083C28.8866 23.2854 27.7382 23.0612 26.6335 23.285L18.3027 24.9727L17.0369 18.7246C18.1417 18.5008 19.1122 17.8473 19.7351 16.9079C20.358 15.9685 20.5823 14.8201 20.3585 13.7154L19.9365 11.6327L22.0192 11.2108C23.124 10.987 24.0945 10.3335 24.7174 9.39407C25.3404 8.45466 25.5646 7.30627 25.3408 6.20154L25.1674 5.34556C31.7671 6.58649 37.2942 11.6938 38.7077 18.6708C39.4514 22.3462 38.9511 26.1646 37.2856 29.5243Z" fill="#00C925"/>
</svg>
